# xmcd CD database file
#
# Track frame offsets:
#	150
#	22655
#	43005
#	63735
#	86158
#	109833
#	130450
#	153565
#	172183
#	195310
#
# Disc length: 2890 seconds
#
# Revision: 0
# Processed by: cddbd v1.5.1PL0 Copyright (c) Steve Scherf et al.
# Submitted via: NeoAudio 9.9.9
#
DISCID=870b480a
DTITLE=Sergio Mendez - The RMMNY Sound
DYEAR=1900
DGENRE=Salsa
TTITLE0=Sonambulo
TTITLE1=Hoy
TTITLE2=Mis Amores
TTITLE3=Esa
TTITLE4=Necesito Una Amiga
TTITLE5=Tu Eres El Hombre
TTITLE6=Se Me Canso El Corazon
TTITLE7=Coincidencia
TTITLE8=De Mi Enamorate
TTITLE9=Nadie Como Tu
EXTD=
EXTT0=
EXTT1=
EXTT2=
EXTT3=
EXTT4=
EXTT5=
EXTT6=
EXTT7=
EXTT8=
EXTT9=
PLAYORDER=
